<?xml version="1.0" standalone="no"?>
<!DOCTYPE svg PUBLIC "-//W3C//DTD SVG 20010904//EN"
 "http://www.w3.org/TR/2001/REC-SVG-20010904/DTD/svg10.dtd">
<svg version="1.0" xmlns="http://www.w3.org/2000/svg"
 width="1519.000000pt" height="1158.000000pt" viewBox="0 0 1519.000000 1158.000000"
 preserveAspectRatio="xMidYMid meet">

<g transform="translate(0.000000,1158.000000) scale(0.100000,-0.100000)"
fill="#000000" stroke="none">
<path d="M6374 10120 c5 -81 4 -130 -2 -130 -5 0 -40 14 -76 31 -78 36 -169
50 -279 42 l-77 -6 6 -51 c3 -28 17 -131 30 -228 l25 -178 -74 -112 c-83 -129
-115 -159 -189 -183 -100 -33 -106 -39 -140 -150 -64 -209 -102 -272 -492
-809 -148 -203 -271 -377 -273 -387 -3 -11 8 -36 28 -61 75 -97 250 -299 333
-385 100 -104 89 -103 179 -24 32 28 60 51 62 51 2 0 3 -42 2 -92 l-1 -93 247
-3 247 -2 0 39 c0 134 193 466 343 592 100 83 100 83 297 87 101 1 181 -1 189
-7 12 -8 10 -16 -14 -48 -59 -78 -146 -174 -360 -393 -258 -264 -332 -346
-410 -455 -97 -135 -154 -269 -170 -398 -4 -31 -13 -61 -19 -66 -7 -6 -65 -9
-134 -8 l-122 2 0 -102 0 -103 1575 0 1575 0 0 103 0 102 -128 3 c-70 2 -130
6 -134 10 -8 8 55 342 73 385 6 15 30 40 53 55 45 30 64 77 52 126 -7 28 -34
60 -57 68 -11 4 -14 39 -13 174 1 221 7 260 42 278 35 18 56 57 55 100 -1 39
-27 83 -54 91 -10 4 -23 14 -28 24 -12 22 -48 230 -57 329 -7 70 -6 74 25 116
17 25 31 56 31 70 0 33 -53 93 -90 101 -38 8 -41 13 -90 140 -84 220 -84 223
-72 285 17 82 3 126 -46 140 -20 5 -47 10 -60 10 -15 0 -41 20 -76 58 -215
231 -236 260 -236 322 0 22 -9 41 -29 61 -28 27 -35 29 -98 27 -75 -2 -119 10
-208 55 -33 17 -96 45 -140 62 -75 29 -80 34 -90 70 -24 82 -107 110 -176 59
-32 -24 -39 -25 -111 -20 -133 11 -147 19 -193 111 -81 166 -210 245 -397 245
l-61 0 7 -130z m235 -126 c48 -61 90 -248 99 -444 l7 -135 78 -13 c56 -9 83
-10 92 -2 8 7 14 53 17 146 3 102 8 138 19 145 20 13 88 1 215 -37 548 -164
883 -492 1072 -1049 85 -249 111 -411 119 -740 10 -430 -16 -714 -99 -1087
l-21 -98 -1081 0 c-595 0 -1091 3 -1103 6 -29 8 -30 44 -3 124 65 192 112 256
444 600 170 177 362 387 427 470 176 223 268 464 299 785 6 61 13 122 16 138
l6 27 -101 0 c-116 0 -106 12 -116 -130 -9 -125 -77 -416 -103 -441 -4 -4
-121 -9 -260 -11 l-254 -5 -55 73 c-78 104 -89 105 -178 15 l-50 -51 52 -52
51 -51 -87 -86 c-114 -114 -200 -237 -291 -418 l-75 -148 -62 -3 -63 -3 0 156
c0 89 -4 165 -10 176 -21 39 -68 21 -182 -69 -114 -91 -125 -97 -145 -81 -19
16 -213 247 -213 255 0 2 66 96 147 207 424 585 466 649 517 785 55 150 67
161 226 213 52 18 112 40 134 51 34 17 37 23 31 46 -3 15 -8 52 -11 82 -5 50
-2 60 31 115 53 86 54 98 20 368 -7 50 11 49 68 -7 52 -50 84 -106 93 -165 10
-60 30 -73 115 -75 l73 -1 8 35 c4 19 14 105 23 190 26 246 25 244 64 194z"/>
<path d="M6035 9013 c-69 -8 -130 -21 -144 -30 -23 -15 -24 -18 -18 -110 3
-53 10 -100 14 -104 10 -10 210 87 257 124 24 20 30 33 34 80 3 44 1 57 -9 56
-8 -1 -68 -8 -134 -16z"/>
<path d="M5322 8160 c-25 -10 -42 -47 -42 -88 0 -15 -11 -51 -25 -80 -14 -30
-22 -58 -19 -63 6 -10 56 -32 95 -42 23 -6 28 -2 42 31 26 60 37 113 37 180 0
43 -4 62 -12 62 -7 0 -22 2 -33 5 -11 2 -30 0 -43 -5z"/>
<path d="M1837 4675 c-159 -30 -299 -106 -408 -223 -111 -117 -155 -227 -166
-413 -14 -252 78 -427 308 -581 46 -31 172 -104 279 -164 326 -179 428 -262
495 -397 102 -209 43 -463 -133 -575 -107 -69 -223 -86 -382 -58 -100 18 -183
61 -253 132 -91 91 -141 187 -207 389 -12 39 -27 76 -33 83 -12 15 -85 16
-123 2 l-27 -11 6 -112 c10 -166 46 -468 60 -496 18 -38 66 -65 174 -100 196
-63 402 -83 618 -62 146 14 252 49 360 116 259 161 397 422 364 686 -21 166
-73 274 -188 390 -94 94 -208 171 -421 283 -285 151 -442 271 -498 383 -65
126 -46 353 37 453 79 96 271 145 416 106 162 -43 287 -180 361 -398 13 -39
29 -77 35 -84 8 -9 33 -14 75 -14 l64 0 0 58 c0 111 -21 427 -31 464 -5 21
-18 46 -29 56 -23 21 -129 57 -232 78 -109 22 -423 27 -521 9z"/>
<path d="M6726 4610 c-87 -44 -115 -97 -116 -211 0 -68 3 -80 28 -115 16 -21
46 -52 68 -69 36 -28 45 -30 119 -30 85 0 124 14 166 58 93 97 72 276 -41 352
-59 39 -163 47 -224 15z"/>
<path d="M3385 3789 c-71 -22 -186 -56 -254 -74 -68 -19 -130 -40 -137 -46 -8
-6 -14 -29 -14 -49 0 -35 3 -39 33 -49 17 -5 53 -13 79 -16 59 -9 83 -34 98
-105 9 -40 14 -337 17 -1075 l5 -1021 -44 -40 c-34 -31 -61 -45 -113 -59 -39
-10 -76 -23 -82 -28 -8 -6 -13 -32 -13 -66 l0 -56 457 3 c332 3 460 7 465 15
12 18 9 95 -2 102 -6 4 -57 17 -114 30 -117 26 -160 45 -178 78 -9 16 -13 125
-16 416 -4 379 -3 393 14 388 124 -36 256 -39 379 -7 86 22 243 93 303 137
140 103 276 253 334 367 152 301 142 658 -27 905 -101 150 -272 250 -455 267
-94 9 -163 -12 -360 -111 -94 -47 -175 -83 -180 -80 -6 3 -10 36 -10 73 0 106
-9 142 -34 141 -11 0 -79 -18 -151 -40z m633 -243 c116 -31 199 -107 263 -241
47 -99 60 -175 60 -361 0 -215 -22 -316 -90 -423 -45 -69 -132 -148 -198 -179
-52 -24 -69 -27 -168 -27 -108 0 -111 1 -189 40 -131 66 -121 15 -124 594 l-3
497 88 42 c149 71 251 87 361 58z"/>
<path d="M6930 3793 c-77 -23 -351 -91 -422 -104 l-68 -12 0 -48 c0 -53 23
-79 70 -79 34 0 126 -46 137 -68 13 -27 16 -1015 3 -1078 -15 -72 -55 -107
-146 -127 -36 -9 -71 -20 -76 -25 -5 -5 -12 -32 -17 -60 l-8 -52 433 0 434 0
0 55 c0 62 -7 69 -85 79 -61 8 -126 38 -144 68 -21 34 -30 223 -31 688 -2 463
-11 756 -25 768 -6 5 -30 3 -55 -5z"/>
<path d="M8003 3800 c-11 -5 -124 -34 -250 -66 -125 -31 -234 -62 -240 -67
-15 -11 -17 -71 -3 -97 6 -12 26 -20 58 -25 71 -10 108 -36 124 -87 16 -52 17
-1034 1 -1083 -11 -35 -59 -71 -117 -86 -23 -6 -59 -16 -81 -23 l-40 -11 -3
-57 -3 -58 411 0 410 0 0 34 c0 68 -13 83 -90 106 -46 14 -75 28 -84 43 -30
47 -36 141 -36 604 l0 462 73 49 c149 101 263 140 359 122 132 -25 205 -113
227 -271 6 -42 11 -269 11 -505 l1 -429 -48 -37 c-26 -21 -64 -40 -83 -44 -68
-11 -70 -13 -70 -52 0 -20 3 -47 6 -59 l6 -23 389 0 389 0 0 38 c0 61 -18 84
-75 97 -68 15 -104 35 -129 68 -20 27 -21 43 -28 455 -9 617 -13 654 -78 782
-33 65 -120 146 -192 180 -189 88 -395 47 -659 -130 -49 -33 -91 -60 -94 -60
-3 0 -5 42 -6 93 -1 135 -10 155 -56 137z"/>
<path d="M10147 3791 c-52 -12 -127 -39 -185 -67 -171 -82 -300 -238 -347
-419 -19 -76 -19 -224 0 -299 36 -138 126 -263 244 -341 33 -22 60 -44 60 -50
-1 -17 -141 -134 -230 -192 -46 -30 -88 -61 -93 -70 -11 -21 -2 -82 19 -127
29 -60 112 -143 186 -187 38 -22 69 -43 68 -47 0 -4 -41 -41 -90 -82 -125
-104 -217 -203 -245 -265 -112 -244 87 -541 418 -624 160 -41 402 -36 554 10
109 33 262 113 351 183 134 106 229 238 279 386 29 84 27 264 -4 350 -58 166
-195 267 -407 300 -38 6 -194 15 -346 19 -262 7 -277 8 -312 30 -70 43 -85 97
-48 169 41 79 80 97 250 113 226 20 325 54 458 153 79 59 136 131 181 226 34
70 36 81 40 196 5 140 -8 230 -43 305 -13 29 -22 56 -19 61 3 5 46 7 96 6 l90
-3 49 53 c27 29 61 73 75 98 48 82 27 86 -293 58 l-191 -17 -64 22 c-138 50
-194 62 -303 67 -85 3 -130 0 -198 -15z m239 -170 c126 -56 206 -233 207 -456
0 -264 -104 -415 -286 -415 -191 0 -337 196 -337 453 0 114 13 179 55 264 79
160 215 218 361 154z m215 -1672 c172 -26 277 -160 267 -340 -11 -185 -151
-342 -353 -394 -85 -22 -244 -20 -338 4 -100 26 -130 43 -203 113 -84 80 -117
153 -116 257 0 103 28 175 98 250 74 80 147 112 274 121 111 8 277 3 371 -11z"/>
<path d="M12025 3800 c-129 -26 -312 -135 -421 -254 -251 -269 -328 -711 -180
-1031 83 -179 235 -318 418 -382 65 -23 88 -26 208 -26 251 0 371 51 563 237
78 77 83 96 35 162 l-31 44 -36 -27 c-140 -108 -209 -134 -342 -135 -53 0
-121 5 -152 11 -57 12 -152 63 -201 109 -54 51 -115 143 -144 220 -26 66 -69
268 -60 277 2 2 107 8 233 14 296 15 614 39 689 51 92 15 96 22 96 159 0 195
-36 287 -157 408 -135 134 -339 198 -518 163z m150 -184 c104 -48 195 -201
195 -327 0 -68 -9 -71 -290 -89 -179 -12 -351 -12 -368 -1 -16 10 10 95 68
216 48 103 95 156 172 194 78 39 150 42 223 7z"/>
<path d="M13519 3805 c-7 -6 -378 -101 -457 -116 -54 -10 -65 -16 -74 -38 -6
-16 -7 -40 -1 -61 7 -30 13 -35 48 -42 76 -15 125 -39 140 -68 27 -52 35 -161
35 -490 0 -374 -12 -591 -34 -644 -18 -42 -52 -60 -136 -71 -84 -11 -90 -17
-90 -80 l0 -55 455 0 455 0 0 48 c0 26 -4 53 -9 61 -5 7 -46 20 -92 28 -96 16
-144 38 -173 77 -18 24 -22 50 -30 224 -5 121 -5 277 1 404 10 205 10 208 43
274 39 81 139 186 192 203 35 11 45 9 139 -28 112 -45 150 -50 192 -23 41 27
85 92 96 142 17 75 -2 136 -60 192 -141 138 -336 60 -530 -212 -35 -49 -67
-90 -71 -90 -4 0 -9 82 -10 182 -3 166 -9 204 -29 183z"/>
<path d="M5284 3741 c-262 -68 -282 -76 -290 -108 -12 -46 9 -69 87 -94 86
-28 105 -50 119 -134 12 -72 12 -867 1 -980 -11 -101 -34 -126 -136 -145 -84
-16 -105 -35 -105 -95 l0 -45 460 0 460 0 0 48 c0 26 -4 53 -9 60 -4 7 -49 19
-104 27 -113 15 -155 36 -182 90 -19 38 -20 63 -23 433 l-3 394 45 73 c59 94
162 192 213 201 32 6 49 0 127 -40 50 -25 103 -46 117 -46 63 0 152 101 165
186 13 86 -31 174 -106 212 -50 25 -144 30 -201 10 -80 -27 -169 -108 -282
-258 l-72 -95 -6 165 c-3 91 -7 173 -8 183 -2 25 -21 22 -267 -42z"/>
</g>
</svg>
