<?xml version="1.0" standalone="no"?>
<!DOCTYPE svg PUBLIC "-//W3C//DTD SVG 20010904//EN"
 "http://www.w3.org/TR/2001/REC-SVG-20010904/DTD/svg10.dtd">
<svg version="1.0" xmlns="http://www.w3.org/2000/svg"
 width="240.000000pt" height="240.000000pt" viewBox="0 0 240.000000 240.000000"
 preserveAspectRatio="xMidYMid meet">

<g transform="translate(0.000000,240.000000) scale(0.100000,-0.100000)"
fill="#000000" stroke="none">
<path d="M1350 2271 c0 -7 49 -38 127 -79 13 -8 27 -11 31 -7 10 10 -66 74
-96 81 -57 12 -62 12 -62 5z"/>
<path d="M1338 2144 c-13 -13 -20 -14 -38 -4 -19 10 -21 10 -12 -7 13 -27 44
-144 39 -149 -2 -3 -23 11 -47 31 -60 50 -74 43 -17 -9 52 -49 53 -51 33 -72
-19 -18 -54 -18 -86 1 -14 8 -33 18 -42 21 -10 3 -18 13 -18 20 0 17 8 17 40
-1 14 -8 34 -14 45 -15 16 0 13 5 -13 20 -18 11 -30 25 -27 30 3 5 3 21 -1 35
-7 30 -37 33 -75 7 -54 -36 -125 -93 -159 -128 -19 -20 -53 -45 -75 -56 -22
-11 -42 -24 -45 -28 -3 -4 -16 -10 -30 -13 -14 -4 -38 -22 -53 -42 l-28 -36
40 -48 c23 -27 41 -56 41 -65 0 -9 5 -16 10 -16 6 0 10 -14 10 -31 0 -45 31
-96 51 -84 13 9 9 218 -4 239 -8 12 -17 33 -20 47 -6 22 -3 25 15 24 12 -1 22
-9 24 -19 5 -32 13 -46 29 -46 8 0 15 8 15 19 0 13 9 20 28 23 37 5 52 0 52
-18 0 -20 8 -17 35 14 16 18 24 22 25 12 0 -8 6 -27 14 -42 8 -15 12 -37 9
-50 -3 -16 3 -10 21 17 14 22 26 48 26 58 0 20 30 23 30 3 0 -29 21 -27 31 3
6 17 15 29 19 26 5 -3 23 8 41 25 40 36 69 39 69 9 0 -17 -4 -20 -24 -15 -21
5 -25 1 -35 -40 -13 -51 -7 -72 8 -31 16 41 29 40 42 -3 7 -22 15 -40 19 -40
16 0 28 26 23 50 -3 16 0 36 7 47 9 15 11 12 6 -19 -6 -44 8 -57 35 -32 23 21
35 13 20 -15 -19 -35 3 -31 47 9 23 22 37 42 32 45 -14 9 -12 36 5 69 9 16 14
29 13 30 -18 7 -44 25 -51 38 -8 11 -4 22 11 39 29 30 28 50 -3 77 -14 12 -25
28 -25 36 0 7 -9 25 -21 40 -24 31 -84 36 -111 10z m-288 -239 c0 -8 -4 -15
-10 -15 -5 0 -10 7 -10 15 0 8 5 15 10 15 6 0 10 -7 10 -15z"/>
<path d="M1543 1937 c5 -15 37 -22 37 -9 0 5 -9 12 -21 15 -13 3 -19 1 -16 -6z"/>
<path d="M1000 1731 c0 -45 14 -48 22 -6 3 14 -1 30 -8 36 -11 9 -14 4 -14
-30z"/>
<path d="M730 1711 c0 -5 5 -13 10 -16 6 -3 10 -2 10 4 0 5 -4 13 -10 16 -5 3
-10 2 -10 -4z"/>
<path d="M613 1675 c29 -25 37 -69 14 -78 -8 -3 -14 0 -14 7 0 15 -44 76 -54
76 -17 0 -20 -22 -6 -43 8 -12 22 -47 31 -77 17 -58 60 -120 73 -106 12 11 7
149 -7 190 -6 20 -20 41 -30 46 -32 17 -36 10 -7 -15z"/>
<path d="M468 1639 c-2 -7 0 -38 5 -71 12 -75 32 -63 32 19 0 46 -3 58 -16 61
-10 2 -19 -2 -21 -9z"/>
<path d="M2170 1555 c0 -17 29 -34 48 -28 20 8 14 30 -10 37 -33 9 -38 8 -38
-9z"/>
<path d="M1577 1533 c-5 -7 2 -17 15 -24 23 -12 22 -13 -12 -22 l-35 -9 37
-21 c21 -12 38 -25 38 -29 0 -5 -19 -8 -42 -8 -25 0 -38 4 -31 8 14 9 -30 31
-105 53 -36 10 -45 10 -52 0 -4 -8 -12 -11 -18 -7 -11 6 -24 -32 -16 -46 3 -4
13 -8 22 -8 11 0 18 -9 19 -26 2 -35 12 -44 59 -50 37 -5 38 -5 19 11 -19 16
-19 16 10 10 17 -4 36 -8 43 -11 17 -5 15 -34 -2 -34 -8 0 -17 -4 -20 -9 -4
-5 3 -7 14 -4 14 4 28 -4 47 -26 15 -17 34 -31 43 -31 17 0 53 30 93 79 22 26
25 36 16 47 -13 16 -45 19 -54 4 -8 -13 -25 -13 -25 -1 0 5 13 15 28 22 46 20
63 79 26 93 -7 3 -11 12 -8 19 4 10 -4 16 -25 19 -17 3 -31 1 -31 -4 0 -13
-38 -9 -42 4 -3 9 -6 9 -11 1z"/>
<path d="M945 1514 c-22 -8 -45 -16 -52 -19 -10 -3 -9 -12 1 -37 8 -18 16 -56
18 -83 l5 -50 44 -5 c24 -3 64 -16 88 -28 49 -27 97 -24 124 6 15 16 33 71 41
122 3 25 4 25 11 3 11 -35 21 -19 17 26 -3 27 -9 41 -19 41 -7 0 -33 9 -55 20
-50 24 -160 26 -223 4z m75 -84 c0 -5 -5 -10 -11 -10 -5 0 -7 5 -4 10 3 6 8
10 11 10 2 0 4 -4 4 -10z"/>
<path d="M139 1509 c-6 -3 -9 -13 -7 -22 2 -13 8 -11 33 8 27 22 28 24 7 22
-13 -1 -28 -4 -33 -8z"/>
<path d="M2270 1463 c0 -14 6 -23 15 -23 17 0 20 -16 5 -25 -20 -12 -9 -43 25
-69 23 -18 35 -35 35 -52 0 -14 10 -38 21 -53 12 -16 18 -34 15 -40 -4 -6 -2
-11 3 -11 7 0 11 31 11 81 0 66 -4 86 -21 110 -11 16 -25 29 -30 29 -6 0 -26
17 -44 38 -32 34 -35 35 -35 15z"/>
<path d="M428 1428 c-21 -5 -49 -23 -63 -40 -26 -31 -33 -62 -13 -56 8 3 17
-13 25 -42 6 -26 22 -63 35 -83 34 -53 68 -51 125 9 45 47 64 53 43 14 -17
-32 -5 -36 21 -6 19 22 29 26 54 20 16 -3 40 -12 51 -20 19 -12 22 -11 27 6 5
20 -10 30 -49 30 -14 0 -24 6 -24 14 0 7 -11 21 -24 30 -14 9 -34 36 -45 60
-10 24 -27 49 -38 54 -31 16 -86 20 -125 10z m-3 -108 c-3 -5 -11 -10 -16 -10
-6 0 -7 5 -4 10 3 6 11 10 16 10 6 0 7 -4 4 -10z"/>
<path d="M787 1273 c-13 -12 -7 -23 13 -23 13 0 18 5 14 15 -7 16 -17 19 -27
8z"/>
<path d="M857 1213 c-4 -3 -7 -11 -7 -17 0 -6 5 -5 12 2 6 6 9 14 7 17 -3 3
-9 2 -12 -2z"/>
<path d="M893 1208 c-11 -16 -49 -114 -56 -147 -3 -13 -2 -34 3 -47 13 -33 -3
-30 -33 6 -31 36 -41 78 -28 113 9 22 8 27 -5 27 -11 0 -14 6 -9 23 5 19 4 20
-5 4 -6 -9 -9 -21 -6 -26 3 -4 -1 -17 -9 -27 -8 -10 -15 -37 -15 -58 0 -77
110 -180 127 -118 3 14 12 17 38 14 l33 -4 -5 44 c-4 35 0 50 21 81 33 48 33
67 -2 100 -32 31 -36 32 -49 15z"/>
<path d="M960 997 c0 -38 40 -97 66 -97 20 0 7 51 -17 68 -10 7 -19 22 -21 34
-5 38 -28 33 -28 -5z"/>
<path d="M2375 972 c-4 -24 -1 -50 9 -72 l15 -35 1 67 c0 74 -15 99 -25 40z"/>
<path d="M333 861 c-3 -12 -13 -21 -24 -21 -11 0 -18 -5 -16 -12 1 -6 -9 -14
-23 -18 -15 -3 -20 -9 -13 -13 6 -4 9 -16 6 -27 -3 -11 0 -20 5 -20 7 0 11
-22 11 -54 -1 -30 3 -61 7 -68 5 -7 9 -17 9 -21 0 -4 11 -13 25 -20 31 -16 33
-46 4 -69 -15 -13 -22 -29 -22 -55 0 -32 19 -69 29 -58 2 2 4 -26 4 -62 0 -36
3 -66 6 -68 5 -4 4 -29 -5 -100 -5 -31 -4 -34 3 -15 6 16 7 -8 4 -67 l-6 -93
188 0 188 0 -6 138 c-24 514 -34 579 -84 567 -13 -3 -23 -1 -23 5 0 15 -16 12
-34 -6 -15 -14 -16 -13 -16 7 0 22 0 22 -21 3 -20 -18 -20 -18 -14 9 5 18 3
27 -5 27 -8 0 -10 -14 -5 -49 4 -31 3 -51 -4 -56 -7 -4 -11 10 -11 42 -1 31
-4 43 -9 33 -14 -25 -21 -80 -11 -80 6 0 6 -9 1 -23 -10 -27 1 -102 24 -161
24 -59 11 -54 -15 6 -23 54 -32 169 -20 277 3 32 1 46 -10 51 -53 26 -70 32
-82 27 -11 -4 -13 2 -10 23 5 33 -17 52 -25 21z m84 -263 c-3 -8 -6 -5 -6 6
-1 11 2 17 5 13 3 -3 4 -12 1 -19z m0 -80 c-3 -7 -5 -2 -5 12 0 14 2 19 5 13
2 -7 2 -19 0 -25z m120 -10 c-3 -7 -5 -2 -5 12 0 14 2 19 5 13 2 -7 2 -19 0
-25z m-147 -32 c0 -3 -4 -8 -10 -11 -5 -3 -10 -1 -10 4 0 6 5 11 10 11 6 0 10
-2 10 -4z"/>
<path d="M2386 821 c-4 -7 -5 -15 -2 -18 9 -9 19 4 14 18 -4 11 -6 11 -12 0z"/>
<path d="M2392 740 c0 -19 2 -27 5 -17 2 9 2 25 0 35 -3 9 -5 1 -5 -18z"/>
<path d="M2360 620 c7 -13 6 -20 -3 -24 -8 -3 -5 -11 11 -24 29 -26 28 -36 -3
-28 -18 5 -25 2 -25 -9 0 -9 -9 -15 -23 -15 -27 0 -100 33 -92 42 14 13 -31
31 -84 34 l-59 2 -11 -76 c-6 -43 -10 -120 -10 -173 l0 -97 -91 6 c-64 3 -90
1 -90 -7 0 -6 -11 -11 -24 -11 -23 0 -23 1 -20 88 2 64 -1 92 -11 106 -12 15
-17 17 -29 7 -11 -9 -20 -10 -35 -1 -25 13 -27 3 -5 -29 13 -18 18 -20 25 -10
7 12 11 11 25 -3 17 -16 16 -20 -5 -65 -12 -26 -28 -56 -35 -66 -17 -22 -46
-12 -46 16 0 19 -3 17 -27 -12 l-28 -33 -38 26 c-21 14 -41 26 -45 26 -4 0
-22 -13 -41 -29 -34 -28 -34 -29 -12 -36 14 -4 33 -2 48 6 20 11 30 11 56 0
56 -22 64 -23 81 -6 14 14 19 15 34 3 9 -7 20 -17 24 -23 4 -5 16 -1 30 12 22
21 24 21 47 4 28 -21 22 -39 -33 -89 -36 -32 -47 -62 -23 -62 6 1 20 11 29 23
80 104 104 117 195 110 53 -3 66 -1 85 16 19 19 23 19 38 6 22 -20 30 -19 30
4 0 11 -14 30 -31 42 -29 21 -31 25 -25 68 7 54 19 69 41 51 17 -14 21 -35 3
-24 -7 4 -8 3 -4 -5 4 -6 11 -9 15 -7 4 3 13 0 21 -5 13 -8 13 -10 1 -18 -12
-7 -12 -13 -3 -24 7 -7 8 -18 4 -22 -4 -5 -2 -5 5 -2 11 7 31 -8 55 -42 7 -10
27 -23 43 -29 l30 -10 -29 -1 c-28 -1 -29 -2 -10 -16 10 -8 14 -15 7 -15 -6 0
-19 7 -28 16 -15 15 -17 15 -21 -4 -6 -22 -56 -36 -134 -37 -25 0 -50 -3 -56
-7 -15 -10 -44 -3 -54 12 -7 12 -10 12 -15 -2 -4 -9 -5 -29 -3 -45 3 -25 7
-28 33 -25 16 2 33 8 36 14 4 6 9 4 12 -5 5 -15 60 -17 74 -3 3 3 14 0 22 -8
10 -9 48 -17 92 -21 63 -5 78 -3 83 10 3 8 12 15 20 15 10 0 13 6 9 17 -5 12
-2 15 10 10 33 -13 16 4 -18 19 -20 8 -33 19 -30 23 3 5 -1 12 -7 14 -7 3 -3
6 9 6 12 1 25 -4 28 -9 3 -5 15 -10 26 -10 16 0 19 7 19 53 0 42 -4 55 -20 65
-12 7 -18 17 -15 22 4 6 11 7 17 4 16 -10 -2 36 -22 56 -10 10 -28 24 -40 30
-11 6 -18 15 -15 20 3 5 -4 14 -15 20 -11 6 -18 15 -15 20 3 5 0 20 -7 32 -23
43 -17 48 28 22 33 -19 51 -24 74 -19 l30 7 0 76 c0 75 -1 77 -25 78 -21 2
-23 -1 -15 -16z"/>
<path d="M1890 571 c-20 -6 -25 -13 -25 -39 0 -18 5 -32 10 -32 6 0 10 10 10
23 1 35 34 34 48 -2 11 -31 27 -42 27 -18 0 6 3 22 6 35 5 18 2 22 -15 22 -11
0 -21 5 -21 10 0 11 -4 11 -40 1z"/>
<path d="M1625 543 c-4 -15 -9 -34 -11 -41 -3 -9 4 -12 19 -10 18 2 22 9 22
37 0 43 -22 53 -30 14z"/>
<path d="M2007 533 c-3 -16 -9 -36 -12 -45 -6 -14 -2 -18 14 -18 18 0 21 6 21
45 0 50 -14 61 -23 18z"/>
<path d="M1440 450 l0 -100 -35 0 c-28 0 -35 -4 -35 -20 0 -11 -6 -20 -12 -20
-8 0 -6 -4 3 -10 23 -13 73 13 88 46 11 24 30 140 31 187 0 10 -8 17 -20 17
-19 0 -20 -7 -20 -100z"/>
<path d="M1526 534 c-11 -29 -6 -55 21 -110 27 -56 44 -70 40 -32 -1 14 4 23
13 23 8 0 16 8 18 18 3 16 -1 18 -26 12 -39 -8 -43 1 -26 50 7 22 14 43 14 48
0 14 -48 7 -54 -9z"/>
<path d="M1790 524 c21 -25 26 -28 32 -15 4 9 7 22 7 30 1 11 -2 11 -14 1 -12
-10 -18 -10 -32 1 -10 8 -6 0 7 -17z"/>
<path d="M1370 464 c0 -56 3 -75 13 -72 8 3 13 30 15 76 2 60 0 72 -13 72 -12
0 -15 -14 -15 -76z"/>
<path d="M1798 473 c7 -3 16 -2 19 1 4 3 -2 6 -13 5 -11 0 -14 -3 -6 -6z"/>
<path d="M1870 450 l-35 -19 54 -1 c53 0 54 0 36 20 -10 11 -19 20 -19 20 -1
-1 -17 -9 -36 -20z"/>
<path d="M1664 433 c-4 -16 -16 -45 -28 -66 -20 -38 -20 -39 -1 -53 24 -18 35
-18 35 1 0 9 6 18 14 21 18 7 30 93 15 110 -17 21 -28 17 -35 -13z"/>
<path d="M1976 445 c-3 -9 0 -15 9 -15 9 0 12 6 9 15 -4 8 -7 15 -9 15 -2 0
-5 -7 -9 -15z"/>
<path d="M1480 316 c-19 -39 -36 -74 -38 -78 -2 -5 10 -8 27 -8 33 0 37 6 22
30 -7 10 -1 22 24 45 33 29 33 30 17 56 l-17 26 -35 -71z"/>
<path d="M1880 370 c0 -5 9 -10 19 -10 11 0 23 5 26 10 4 6 -5 10 -19 10 -14
0 -26 -4 -26 -10z"/>
<path d="M1970 370 c0 -5 11 -10 25 -10 14 0 25 5 25 10 0 6 -11 10 -25 10
-14 0 -25 -4 -25 -10z"/>
<path d="M1880 316 c0 -11 9 -16 26 -16 31 0 28 23 -4 28 -15 2 -22 -2 -22
-12z"/>
<path d="M1977 324 c-14 -14 -6 -24 19 -24 16 0 24 5 22 13 -5 14 -31 21 -41
11z"/>
<path d="M1930 132 c0 -4 -20 -18 -45 -32 -31 -17 -49 -35 -59 -60 -19 -47
-11 -52 20 -12 14 18 31 32 39 32 7 0 18 7 25 15 7 9 19 14 26 11 7 -3 17 1
23 8 7 9 5 17 -9 29 -11 9 -20 13 -20 9z"/>
<path d="M750 51 c-17 -5 -21 -9 -12 -15 15 -9 52 1 52 15 0 10 -4 10 -40 0z"/>
</g>
</svg>
